<?xml version="1.0" encoding="utf-8"?>
<!-- Generator: Adobe Illustrator 27.8.0, SVG Export Plug-In . SVG Version: 6.00 Build 0)  -->
<svg version="1.1" xmlns="http://www.w3.org/2000/svg" xmlns:xlink="http://www.w3.org/1999/xlink" x="0px" y="0px"
	 viewBox="0 0 2200 2200" style="enable-background:new 0 0 2200 2200;" xml:space="preserve">
<style type="text/css">
	.st0{fill:#FFFFFF;}
	.st1{fill:url(#SVGID_1_);}
	.st2{fill:url(#SVGID_00000040554904636952446940000016362276813747681194_);}
	.st3{fill:url(#SVGID_00000009570361817326354560000003052696244198967696_);}
	.st4{fill:url(#SVGID_00000161619750737591598470000006995431260666206104_);}
	.st5{fill:url(#SVGID_00000052073016662857211410000007572243611920408710_);}
	.st6{fill:url(#SVGID_00000093164764373522238010000010086248623329237901_);}
	.st7{fill:url(#SVGID_00000173840518145104698900000017892728170955481785_);}
	.st8{fill:url(#SVGID_00000098193403946375242660000008238360632431834241_);}
	.st9{fill:url(#SVGID_00000111186070683202574510000001484636255632464533_);}
	.st10{fill:url(#SVGID_00000083782716917951234150000014655899523452954296_);}
	.st11{fill:url(#SVGID_00000071551398146999414470000006296901545904746907_);}
	.st12{fill:url(#SVGID_00000036221767245033143920000002792760546373328293_);}
</style>
<g id="Background">
	<rect class="st0" width="2200" height="2200"/>
</g>
<g id="Objects">
	<g>
		<linearGradient id="SVGID_1_" gradientUnits="userSpaceOnUse" x1="-1879.9952" y1="320.0316" x2="1174.6022" y2="320.0316">
			<stop  offset="0" style="stop-color:#CCF8FF"/>
			<stop  offset="0.3978" style="stop-color:#47BFFF"/>
			<stop  offset="0.7859" style="stop-color:#0008FF"/>
			<stop  offset="1" style="stop-color:#0005A6"/>
		</linearGradient>
		<path class="st1" d="M1100,539.1c-54.5,0-98.8-44.3-98.8-98.8V199.8c0-54.5,44.3-98.8,98.8-98.8s98.8,44.3,98.8,98.8v240.4
			C1198.8,494.7,1154.5,539.1,1100,539.1z"/>
		
			<linearGradient id="SVGID_00000086690039228182755960000012342628679816935316_" gradientUnits="userSpaceOnUse" x1="-3660.1135" y1="424.5276" x2="1251.6748" y2="424.5276">
			<stop  offset="0" style="stop-color:#CCF8FF"/>
			<stop  offset="0.3978" style="stop-color:#47BFFF"/>
			<stop  offset="0.7859" style="stop-color:#0008FF"/>
			<stop  offset="1" style="stop-color:#0005A6"/>
		</linearGradient>
		<path style="fill:url(#SVGID_00000086690039228182755960000012342628679816935316_);" d="M770.2,627.5c-35.2,0-68-18.9-85.6-49.4
			L564.3,369.8c-27.2-47.2-11-107.8,36.2-135c15-8.7,32.1-13.2,49.4-13.2c35.2,0,68,18.9,85.6,49.4l120.2,208.2
			c27.2,47.2,11,107.8-36.2,135C804.5,622.9,787.4,627.5,770.2,627.5z"/>
		
			<linearGradient id="SVGID_00000168814923479315429820000001895938256436848772_" gradientUnits="userSpaceOnUse" x1="-4617.9536" y1="710.0159" x2="1654.7782" y2="710.0159">
			<stop  offset="0" style="stop-color:#CCF8FF"/>
			<stop  offset="0.3978" style="stop-color:#47BFFF"/>
			<stop  offset="0.7859" style="stop-color:#0008FF"/>
			<stop  offset="1" style="stop-color:#0005A6"/>
		</linearGradient>
		<path style="fill:url(#SVGID_00000168814923479315429820000001895938256436848772_);" d="M528.6,869c-17.3,0-34.4-4.6-49.4-13.2
			L271,735.5c-22.9-13.2-39.2-34.5-46-60c-6.8-25.5-3.3-52.1,9.9-75c17.6-30.5,50.4-49.4,85.6-49.4c17.3,0,34.4,4.6,49.4,13.2
			L578,684.5c47.2,27.2,63.4,87.8,36.2,135C596.6,850,563.8,869,528.6,869z"/>
		
			<linearGradient id="SVGID_00000134935243381723982080000015174347338210604929_" gradientUnits="userSpaceOnUse" x1="-4541.0479" y1="1100" x2="2229.1277" y2="1100">
			<stop  offset="0" style="stop-color:#CCF8FF"/>
			<stop  offset="0.3978" style="stop-color:#47BFFF"/>
			<stop  offset="0.7859" style="stop-color:#0008FF"/>
			<stop  offset="1" style="stop-color:#0005A6"/>
		</linearGradient>
		<path style="fill:url(#SVGID_00000134935243381723982080000015174347338210604929_);" d="M199.8,1198.8
			c-54.5,0-98.8-44.3-98.8-98.8s44.3-98.8,98.8-98.8h240.4c54.5,0,98.8,44.3,98.8,98.8s-44.3,98.8-98.8,98.8H199.8z"/>
		
			<linearGradient id="SVGID_00000042003213322242400730000015482659122649437065_" gradientUnits="userSpaceOnUse" x1="-3540.8125" y1="1489.9836" x2="2731.9265" y2="1489.9836">
			<stop  offset="0" style="stop-color:#CCF8FF"/>
			<stop  offset="0.3978" style="stop-color:#47BFFF"/>
			<stop  offset="0.7859" style="stop-color:#0008FF"/>
			<stop  offset="1" style="stop-color:#0005A6"/>
		</linearGradient>
		<path style="fill:url(#SVGID_00000042003213322242400730000015482659122649437065_);" d="M320.5,1648.9c-35.2,0-68-18.9-85.6-49.4
			c-27.2-47.2-11-107.7,36.2-135l208.2-120.2c15-8.7,32.1-13.2,49.4-13.2c35.2,0,68,18.9,85.6,49.4c13.2,22.9,16.7,49.5,9.9,75
			c-6.8,25.5-23.2,46.8-46,60l-208.2,120.2C354.8,1644.3,337.8,1648.9,320.5,1648.9z"/>
		
			<linearGradient id="SVGID_00000012442018103604849100000010940095996936975765_" gradientUnits="userSpaceOnUse" x1="-1973.3148" y1="1775.4727" x2="2938.467" y2="1775.4727">
			<stop  offset="0" style="stop-color:#CCF8FF"/>
			<stop  offset="0.3978" style="stop-color:#47BFFF"/>
			<stop  offset="0.7859" style="stop-color:#0008FF"/>
			<stop  offset="1" style="stop-color:#0005A6"/>
		</linearGradient>
		<path style="fill:url(#SVGID_00000012442018103604849100000010940095996936975765_);" d="M649.9,1978.4
			c-17.3,0-34.4-4.6-49.4-13.2c-47.2-27.2-63.4-87.8-36.2-135L684.5,1622c17.6-30.5,50.4-49.4,85.6-49.4c17.3,0,34.4,4.6,49.4,13.2
			c47.2,27.2,63.4,87.8,36.2,135L735.5,1929C717.9,1959.5,685.1,1978.4,649.9,1978.4z"/>
		
			<linearGradient id="SVGID_00000109723779543188360400000005088092058616390295_" gradientUnits="userSpaceOnUse" x1="-306.4911" y1="1879.9681" x2="2748.1062" y2="1879.9681">
			<stop  offset="0" style="stop-color:#CCF8FF"/>
			<stop  offset="0.3978" style="stop-color:#47BFFF"/>
			<stop  offset="0.7859" style="stop-color:#0008FF"/>
			<stop  offset="1" style="stop-color:#0005A6"/>
		</linearGradient>
		<path style="fill:url(#SVGID_00000109723779543188360400000005088092058616390295_);" d="M1100,2099c-54.5,0-98.8-44.3-98.8-98.8
			v-240.4c0-54.5,44.3-98.8,98.8-98.8s98.8,44.3,98.8,98.8v240.4C1198.8,2054.7,1154.5,2099,1100,2099z"/>
		
			<linearGradient id="SVGID_00000069357512254046527470000007563521830384325783_" gradientUnits="userSpaceOnUse" x1="-349.9509" y1="1775.4727" x2="4561.8315" y2="1775.4727">
			<stop  offset="0" style="stop-color:#CCF8FF"/>
			<stop  offset="0.3978" style="stop-color:#47BFFF"/>
			<stop  offset="0.7859" style="stop-color:#0008FF"/>
			<stop  offset="1" style="stop-color:#0005A6"/>
		</linearGradient>
		<path style="fill:url(#SVGID_00000069357512254046527470000007563521830384325783_);" d="M1550.1,1978.4
			c-35.2,0-68-18.9-85.6-49.4l-120.2-208.2c-27.2-47.2-11-107.8,36.2-135c15-8.7,32.1-13.2,49.4-13.2c35.2,0,68,18.9,85.6,49.4
			l120.2,208.2c27.2,47.2,11,107.7-36.2,135C1584.5,1973.8,1567.4,1978.4,1550.1,1978.4z"/>
		
			<linearGradient id="SVGID_00000084514192443549898270000000562361516475905950_" gradientUnits="userSpaceOnUse" x1="-35.7603" y1="1489.9836" x2="6236.979" y2="1489.9836">
			<stop  offset="0" style="stop-color:#CCF8FF"/>
			<stop  offset="0.3978" style="stop-color:#47BFFF"/>
			<stop  offset="0.7859" style="stop-color:#0008FF"/>
			<stop  offset="1" style="stop-color:#0005A6"/>
		</linearGradient>
		<path style="fill:url(#SVGID_00000084514192443549898270000000562361516475905950_);" d="M1879.5,1648.9
			c-17.3,0-34.4-4.6-49.4-13.2L1622,1515.5c-22.9-13.2-39.2-34.5-46-60c-6.8-25.5-3.3-52.1,9.9-75c17.6-30.5,50.4-49.4,85.6-49.4
			c17.3,0,34.4,4.6,49.4,13.2l208.2,120.2c47.2,27.2,63.4,87.8,36.2,135C1947.6,1630,1914.8,1648.9,1879.5,1648.9z"/>
		
			<linearGradient id="SVGID_00000003792145353642747540000005825600656720110269_" gradientUnits="userSpaceOnUse" x1="506.3854" y1="1100" x2="7276.561" y2="1100">
			<stop  offset="0" style="stop-color:#CCF8FF"/>
			<stop  offset="0.3978" style="stop-color:#47BFFF"/>
			<stop  offset="0.7859" style="stop-color:#0008FF"/>
			<stop  offset="1" style="stop-color:#0005A6"/>
		</linearGradient>
		<path style="fill:url(#SVGID_00000003792145353642747540000005825600656720110269_);" d="M1759.8,1198.8
			c-54.5,0-98.8-44.3-98.8-98.8s44.3-98.8,98.8-98.8h240.4c54.5,0,98.8,44.3,98.8,98.8s-44.3,98.8-98.8,98.8H1759.8z"/>
		
			<linearGradient id="SVGID_00000013910207183849509230000015953385529738045610_" gradientUnits="userSpaceOnUse" x1="1041.387" y1="710.0159" x2="7314.1255" y2="710.0159">
			<stop  offset="0" style="stop-color:#CCF8FF"/>
			<stop  offset="0.3978" style="stop-color:#47BFFF"/>
			<stop  offset="0.7859" style="stop-color:#0008FF"/>
			<stop  offset="1" style="stop-color:#0005A6"/>
		</linearGradient>
		<path style="fill:url(#SVGID_00000013910207183849509230000015953385529738045610_);" d="M1671.4,869c-35.2,0-68-18.9-85.6-49.4
			c-27.2-47.2-11-107.7,36.2-135l208.2-120.2c15-8.7,32.1-13.2,49.4-13.2c35.2,0,68,18.9,85.6,49.4c13.2,22.9,16.7,49.5,9.9,75
			c-6.8,25.5-23.2,46.8-46,60l-208.2,120.2C1705.8,864.4,1688.7,869,1671.4,869z"/>
		
			<linearGradient id="SVGID_00000165225081562619057190000016339164802987300762_" gradientUnits="userSpaceOnUse" x1="1336.8419" y1="424.5276" x2="6248.6304" y2="424.5276">
			<stop  offset="0" style="stop-color:#CCF8FF"/>
			<stop  offset="0.3978" style="stop-color:#47BFFF"/>
			<stop  offset="0.7859" style="stop-color:#0008FF"/>
			<stop  offset="1" style="stop-color:#0005A6"/>
		</linearGradient>
		<path style="fill:url(#SVGID_00000165225081562619057190000016339164802987300762_);" d="M1429.8,627.5
			c-17.3,0-34.4-4.6-49.4-13.2c-47.2-27.2-63.4-87.8-36.2-135L1464.5,271c17.6-30.5,50.4-49.4,85.6-49.4c17.3,0,34.4,4.6,49.4,13.2
			c47.2,27.2,63.4,87.8,36.2,135L1515.5,578C1497.9,608.5,1465.1,627.5,1429.8,627.5z"/>
	</g>
</g>
</svg>
